<svg width="12" height="21" viewBox="0 0 12 21" fill="none" xmlns="http://www.w3.org/2000/svg">
<path d="M11.0939 0.982788H7.43042C7.42181 0.982788 7.41349 0.983065 7.40543 0.983899C3.70673 0.995565 3.22368 3.57973 3.22174 5.83834C3.21674 5.85945 3.21396 5.88112 3.21396 5.90362V7.48918H0.682647C0.529402 7.48918 0.405029 7.61362 0.405029 7.76696V11.6772C0.405029 11.8308 0.529402 11.955 0.682647 11.955H3.21396V20.5358C3.21396 20.6895 3.33834 20.8136 3.49158 20.8136H7.18584C7.33936 20.8136 7.46346 20.6895 7.46346 20.5358V11.9553H11.0936C11.2471 11.9553 11.3712 11.8311 11.3712 11.6775V7.76723C11.3712 7.6139 11.2471 7.48946 11.0936 7.48946H7.18584V5.38751H11.0936C11.2471 5.38751 11.3712 5.26307 11.3712 5.10973V1.26057C11.3715 1.10723 11.2471 0.982788 11.0939 0.982788Z" fill="black"/>
</svg>
