<svg width="19" height="23" viewBox="0 0 19 23" fill="none" xmlns="http://www.w3.org/2000/svg">
<path d="M17.0982 0.192444C17.0982 0.192444 15.6499 0.192444 14.1788 2.39833C13.4509 1.6697 11.2374 1.6628 10.504 1.6628C9.76777 1.6628 7.55568 1.6697 6.82705 2.39833C5.356 0.192444 3.91115 0.192444 3.91115 0.192444C3.12461 2.16671 3.74019 3.50609 3.8884 3.86868C3.15356 4.60421 2.41528 5.33973 2.41528 9.01597C2.41528 12.6922 5.08854 14.5362 8.30085 14.8981C7.88794 15.2572 7.56533 16.3685 7.56533 17.104C6.74019 17.4714 4.44401 17.8243 3.15356 15.6336C3.15356 15.6336 2.41804 14.1633 0.947682 14.1633C0.947682 14.1633 -0.522676 14.0247 0.947682 14.8988C0.947682 14.8988 1.68321 15.6343 2.41804 17.1047C2.41804 17.1047 3.54097 20.1764 7.56533 19.3105C7.5736 20.5066 7.56533 22.252 7.56533 22.252H13.444V17.1047C13.444 16.5229 13.1228 15.2572 12.7085 14.8988C15.9208 14.5369 18.5906 12.6929 18.5906 9.01666C18.5906 5.34042 17.8551 4.6049 17.1202 3.86937C17.2698 3.50609 17.884 2.16671 17.0982 0.192444V0.192444Z" fill="black"/>
</svg>
