<svg width="18" height="18" viewBox="0 0 18 18" fill="none" xmlns="http://www.w3.org/2000/svg">
<path d="M14.2222 0.842773H3.65331C2.09449 0.842773 0.82605 2.11166 0.82605 3.67166V14.2953C0.82605 15.855 2.09421 17.1242 3.65331 17.1242H14.2219C15.7808 17.1242 17.0492 15.8553 17.0492 14.2953V3.67138C17.0492 2.11166 15.781 0.842773 14.2222 0.842773ZM11.3825 8.95333C11.3825 10.3022 10.2859 11.3994 8.93776 11.3994C7.58965 11.3994 6.49306 10.3022 6.49306 8.95333C6.49306 8.28416 6.76346 7.67749 7.19988 7.23555H10.6754C11.1123 7.67749 11.3825 8.28416 11.3825 8.95333ZM12.0912 3.10611H14.5676V5.65861H12.0912V3.10611ZM14.2222 15.4572H3.65331C3.01285 15.4572 2.49176 14.9358 2.49176 14.295V7.23555H5.20797C4.96616 7.75916 4.82735 8.33972 4.82735 8.95333C4.82735 11.2214 6.67129 13.0661 8.93776 13.0661C11.2042 13.0661 13.0482 11.2211 13.0482 8.95333C13.0482 8.33972 12.9094 7.75916 12.6676 7.23555H15.3835V14.295C15.3835 14.9358 14.8624 15.4572 14.2222 15.4572Z" fill="black"/>
</svg>
