<svg width="20" height="17" viewBox="0 0 20 17" fill="none" xmlns="http://www.w3.org/2000/svg">
<path d="M17.4304 3.39279C17.8185 3.19223 18.7479 2.5964 19.186 1.31751C19.186 1.31751 18.1302 2.0814 16.6933 2.1714L16.6672 2.18584C15.9321 1.38307 14.8752 0.879456 13.7 0.879456C11.4768 0.879456 9.67483 2.68279 9.67483 4.90723C9.67483 5.24473 9.71675 5.57251 9.79532 5.88584L9.77589 5.85668C9.77589 5.85668 5.46448 6.1039 1.39988 1.65473C1.39988 1.65473 -0.39714 4.71057 2.6797 7.04751C2.00592 7.15973 0.816049 6.55306 0.816049 6.55306C0.816049 6.55306 0.883233 9.76584 4.07195 10.5525C3.55558 10.6875 2.58975 10.732 2.27549 10.5975C2.27549 10.5975 2.74688 13.0464 6.00334 13.4736C5.17243 13.9456 3.62304 15.3833 0.119507 15.1136C0.119507 15.1136 2.63528 17.1806 7.3062 16.8889C11.9771 16.5972 15.3682 13.4508 16.738 10.1256C18.1077 6.80029 17.7266 4.90695 17.7266 4.90695C17.7266 4.90695 18.8712 4.30584 19.658 2.86807C19.2946 2.97696 17.9467 3.3064 17.4451 3.42834C17.4401 3.41668 17.4351 3.40473 17.4304 3.39279Z" fill="black"/>
</svg>
